<?xml version="1.0" encoding="UTF-8" standalone="no"?>
<!-- Created with Inkscape (http://www.inkscape.org/) -->

<svg
   width="210mm"
   height="297mm"
   viewBox="0 0 210 297"
   version="1.1"
   id="svg5"
   inkscape:version="1.1.2 (0a00cf5339, 2022-02-04)"
   sodipodi:docname="strix.svg"
   xmlns:inkscape="http://www.inkscape.org/namespaces/inkscape"
   xmlns:sodipodi="http://sodipodi.sourceforge.net/DTD/sodipodi-0.dtd"
   xmlns="http://www.w3.org/2000/svg"
   xmlns:svg="http://www.w3.org/2000/svg">
  <sodipodi:namedview
     id="namedview7"
     pagecolor="#ffffff"
     bordercolor="#666666"
     borderopacity="1.0"
     inkscape:pageshadow="2"
     inkscape:pageopacity="0.0"
     inkscape:pagecheckerboard="0"
     inkscape:document-units="mm"
     showgrid="false"
     inkscape:zoom="11.313709"
     inkscape:cx="184.02454"
     inkscape:cy="263.04372"
     inkscape:window-width="1920"
     inkscape:window-height="1043"
     inkscape:window-x="0"
     inkscape:window-y="0"
     inkscape:window-maximized="1"
     inkscape:current-layer="text4082"
     inkscape:snap-grids="true">
    <inkscape:grid
       type="xygrid"
       id="grid50886" />
  </sodipodi:namedview>
  <defs
     id="defs2" />
  <g
     inkscape:label="Layer 1"
     inkscape:groupmode="layer"
     id="layer1">
    <g
       aria-label="strix"
       id="text4082"
       style="font-size:14.1111px;line-height:1.25;stroke-width:0.264583">
      <g
         aria-label="Σ"
         id="text26016"
         style="stroke-width:0.0700042"
         transform="translate(0.31637253)">
        <path
           d="m 73.227238,113.09015 h 4.228148 v 1.11811 h -4.260571 v -2.42616 l 1.734299,-1.5811 -1.734299,-1.48826 v -2.29783 h 4.136548 v 1.01138 h -4.104125 l 2.524533,2.10134 -0.06074,1.38516 z"
           id="path46228"
           sodipodi:nodetypes="cccccccccccccc" />
      </g>
      <path
         d="m 76.542261,104.24861 v 2.19108 h 2.61138 v 0.9853 h -2.61138 v 4.18923 c 0,0.62931 0.08498,1.03353 0.254937,1.21267 0.174551,0.17915 0.525951,0.26872 1.054198,0.26872 h 1.302245 v 1.06109 h -1.302245 c -0.978406,0 -1.653644,-0.18144 -2.025714,-0.54432 -0.37207,-0.36748 -0.558105,-1.03353 -0.558105,-1.99816 v -4.18923 l -0.81047,-0.3848 -0.119706,-0.6005 h 0.930176 v -2.19108 z"
         id="path18726"
         sodipodi:nodetypes="cccccscsccscscccccc" />
      <path
         d="m 81.892863,107.62479 c -0.126456,-0.0827 -0.265147,-0.14239 -0.416076,-0.17914 -0.14685,-0.0413 -0.310018,-0.062 -0.489501,-0.062 -0.636352,0 -0.983137,0.23427 -1.325788,0.7028 -0.338572,0.46394 -0.507857,1.13229 -0.507857,2.00504 v 4.06521 h -1.274684 v -7.71701 h 1.274684 v 1.19889 c 0.236591,-0.46853 0.401855,-0.81533 0.781218,-1.04041 0.379364,-0.22967 0.84031,-0.34451 1.38284,-0.34451 0.07751,0 0.163166,0.007 0.256988,0.0207 0.09382,0.009 0.387518,0.14242 0.501736,0.16532 z"
         id="path18728"
         sodipodi:nodetypes="ccscsccccccsccc"
         style="stroke-width:0.249332" />
      <path
         d="m 80.553724,106.43968 h 1.267794 v 7.71701 h -1.267794 z"
         id="path18730"
         sodipodi:nodetypes="ccccc" />
      <path
         d="m 84.774505,108.16366 -1.450958,1.95538 1.443016,1.90206 -0.003,2.0598 -1.435812,-1.98408 -1.506265,2.05987 -0.860497,-0.90926 0.582573,-0.73053 1.779985,-2.39786 -2.742294,-3.67936 h 1.49517 l 1.216494,1.81502 1.465411,-1.99519 z"
         id="path18732"
         sodipodi:nodetypes="cccccccccccccc" />
      <rect
         style="fill:#000000;fill-opacity:1;stroke:none;stroke-width:0.2;stroke-linecap:round;stroke-linejoin:round"
         id="rect22566"
         width="1.2690771"
         height="1.4389417"
         x="80.553085"
         y="104.24861" />
      <g
         aria-label="Σ"
         id="g47891"
         style="stroke-width:0.0700042"
         transform="matrix(1,0,0,0.99390456,0.31637253,14.113681)">
        <path
           d="m 73.227238,113.09015 h 2.963284 l 1.264864,1.11811 h -4.260571 v -2.42616 l 1.734299,-1.5811 -1.734299,-1.48826 v -2.29783 h 4.136548 v 1.01138 h -4.104125 l 2.524533,2.10134 -0.06074,1.38516 z"
           id="path47889"
           sodipodi:nodetypes="cccccccccccccc" />
      </g>
      <path
         d="m 76.542261,117.71365 v 2.19108 h 2.61138 v 0.9853 h -2.61138 v 4.59005 l 1.343668,0.99989 1.267712,0.0807 v 1.06109 h -1.548194 l -2.33787,-1.93157 0,-4.80014 -0.81047,-0.3848 -0.119706,-0.6005 h 0.930176 v -2.19108 z"
         id="path47893"
         sodipodi:nodetypes="ccccccccccccccccc" />
      <path
         d="m 81.476787,120.91069 -0.903372,0.27097 -1.419774,1.17443 v 5.26565 h -1.274684 v -7.71701 h 1.274684 v 1.19889 l 1.427612,-1.1989 c 0.07751,0 1.146443,-0.0137 1.240265,0 0,0 0.06966,0.62059 -0.344731,1.00597 z"
         id="path47895"
         sodipodi:nodetypes="ccccccccccc"
         style="stroke-width:0.249332" />
      <path
         d="m 80.553724,119.90472 h 1.267794 v 7.71701 h -1.267794 z"
         id="path47897"
         sodipodi:nodetypes="ccccc" />
      <path
         d="m 84.774505,121.6287 -1.450958,1.95538 1.443016,1.90206 -0.003,2.0598 -1.435812,-1.98408 -1.506265,2.05987 -0.860497,-0.90926 0.582573,-0.73053 1.779985,-2.39786 -2.742294,-3.67936 h 1.49517 l 1.216494,1.81502 1.465411,-1.99519 z"
         id="path47899"
         sodipodi:nodetypes="cccccccccccccc" />
      <rect
         style="fill:#000000;fill-opacity:1;stroke:none;stroke-width:0.2;stroke-linecap:round;stroke-linejoin:round"
         id="rect47901"
         width="1.2690771"
         height="1.4389417"
         x="80.553085"
         y="117.71365" />
      <rect
         style="opacity:1;fill:#000000;fill-opacity:1;stroke:none;stroke-width:0.2;stroke-linecap:round;stroke-linejoin:round"
         id="rect49696"
         width="16.641287"
         height="1.2292202"
         x="66.593597"
         y="84.300331" />
      <rect
         style="opacity:1;fill:#000000;fill-opacity:1;stroke:none;stroke-width:0.2;stroke-linecap:round;stroke-linejoin:round"
         id="rect49698"
         width="1.4901705"
         height="13.254178"
         x="74.169159"
         y="85.469749" />
      <path
         style="opacity:1;fill:#000000;fill-opacity:1;stroke:none;stroke-width:0.2;stroke-linecap:round;stroke-linejoin:round"
         id="path49985"
         sodipodi:type="arc"
         sodipodi:cx="-70.397125"
         sodipodi:cy="-94.469566"
         sodipodi:rx="3.8016109"
         sodipodi:ry="3.8016109"
         sodipodi:start="1.5641877"
         sodipodi:end="4.7164441"
         sodipodi:arc-type="slice"
         d="m -70.372002,-90.668038 a 3.8016109,3.8016109 0 0 1 -3.311594,-1.890677 3.8016109,3.8016109 0 0 1 -0.0049,-3.813304 3.8016109,3.8016109 0 0 1 3.306756,-1.899127 l -0.01542,3.80158 z"
         transform="scale(-1)" />
      <g
         id="g50528">
        <path
           style="opacity:1;fill:#000000;fill-opacity:1;stroke:none;stroke-width:0.2;stroke-linecap:round;stroke-linejoin:round"
           id="path49804"
           sodipodi:type="arc"
           sodipodi:cx="70.39521"
           sodipodi:cy="88.101936"
           sodipodi:rx="3.8016109"
           sodipodi:ry="3.8016109"
           sodipodi:start="1.5641877"
           sodipodi:end="4.7164441"
           sodipodi:arc-type="slice"
           d="m 70.420334,91.903464 a 3.8016109,3.8016109 0 0 1 -3.311595,-1.890676 3.8016109,3.8016109 0 0 1 -0.0049,-3.813305 3.8016109,3.8016109 0 0 1 3.306756,-1.899126 l -0.01542,3.801579 z" />
        <path
           style="opacity:1;fill:#ffffff;fill-opacity:1;stroke:none;stroke-width:0.2;stroke-linecap:round;stroke-linejoin:round"
           id="path49987"
           sodipodi:type="arc"
           sodipodi:cx="70.39521"
           sodipodi:cy="88.101936"
           sodipodi:rx="2.2880991"
           sodipodi:ry="2.5708172"
           sodipodi:start="1.5641877"
           sodipodi:end="5.0603035"
           sodipodi:arc-type="arc"
           d="m 70.410331,90.672697 a 2.2880991,2.5708172 0 0 1 -2.111725,-1.541218 2.2880991,2.5708172 0 0 1 0.427645,-2.788182 2.2880991,2.5708172 0 0 1 2.449059,-0.658149"
           sodipodi:open="true" />
      </g>
      <path
         style="opacity:1;fill:#ffffff;fill-opacity:1;stroke:none;stroke-width:0.2;stroke-linecap:round;stroke-linejoin:round"
         id="path50250"
         sodipodi:type="arc"
         sodipodi:cx="-70.397125"
         sodipodi:cy="-94.469566"
         sodipodi:rx="2.3489437"
         sodipodi:ry="2.5851021"
         sodipodi:start="1.4907737"
         sodipodi:end="4.9377344"
         sodipodi:arc-type="arc"
         d="m -70.209357,-91.892737 a 2.3489437,2.5851021 0 0 1 -2.247094,-1.333311 2.3489437,2.5851021 0 0 1 0.185333,-2.802125 2.3489437,2.5851021 0 0 1 2.398848,-0.961136"
         transform="scale(-1)"
         sodipodi:open="true" />
      <g
         id="g50534"
         transform="matrix(-1,0,0,1,149.39319,-0.00259626)">
        <path
           style="opacity:1;fill:#000000;fill-opacity:1;stroke:none;stroke-width:0.2;stroke-linecap:round;stroke-linejoin:round"
           id="path50530"
           sodipodi:type="arc"
           sodipodi:cx="70.39521"
           sodipodi:cy="88.101936"
           sodipodi:rx="3.8016109"
           sodipodi:ry="3.8016109"
           sodipodi:start="1.5641877"
           sodipodi:end="4.7164441"
           sodipodi:arc-type="slice"
           d="m 70.420334,91.903464 a 3.8016109,3.8016109 0 0 1 -3.311595,-1.890676 3.8016109,3.8016109 0 0 1 -0.0049,-3.813305 3.8016109,3.8016109 0 0 1 3.306756,-1.899126 l -0.01542,3.801579 z" />
        <path
           style="opacity:1;fill:#ffffff;fill-opacity:1;stroke:none;stroke-width:0.2;stroke-linecap:round;stroke-linejoin:round"
           id="path50532"
           sodipodi:type="arc"
           sodipodi:cx="70.39521"
           sodipodi:cy="88.101936"
           sodipodi:rx="2.2880991"
           sodipodi:ry="2.5708172"
           sodipodi:start="1.5641877"
           sodipodi:end="5.0603035"
           sodipodi:arc-type="arc"
           d="m 70.410331,90.672697 a 2.2880991,2.5708172 0 0 1 -2.111725,-1.541218 2.2880991,2.5708172 0 0 1 0.427645,-2.788182 2.2880991,2.5708172 0 0 1 2.449059,-0.658149"
           sodipodi:open="true" />
      </g>
      <path
         style="opacity:1;fill:#000000;fill-opacity:1;stroke:none;stroke-width:0.2;stroke-linecap:round;stroke-linejoin:round"
         id="path50560"
         sodipodi:type="arc"
         sodipodi:cx="75.659332"
         sodipodi:cy="98.72393"
         sodipodi:rx="8.1144476"
         sodipodi:ry="8.1144476"
         sodipodi:start="4.7133219"
         sodipodi:end="0.0057046595"
         sodipodi:arc-type="slice"
         d="m 75.666902,90.609486 a 8.1144476,8.1144476 0 0 1 5.749222,2.395737 8.1144476,8.1144476 0 0 1 2.357524,5.764997 l -8.114316,-0.04629 z" />
      <rect
         style="opacity:1;fill:#000000;fill-opacity:1;stroke:none;stroke-width:0.2;stroke-linecap:round;stroke-linejoin:round"
         id="rect50888"
         width="5.2916656"
         height="1.3229192"
         x="41.010418"
         y="68.791664" />
      <path
         id="rect50970"
         style="opacity:1;stroke-width:0.151186;stroke-linecap:round;stroke-linejoin:round"
         transform="rotate(45)"
         d="m 78.57724,20.579754 h 3.180508 v 1.30962 l -1.870886,0 z"
         sodipodi:nodetypes="ccccc" />
      <path
         id="rect50972"
         style="opacity:1;stroke-width:0.151186;stroke-linecap:round;stroke-linejoin:round"
         transform="matrix(0.70710678,-0.70710678,-0.70710678,-0.70710678,0,0)"
         d="m -23.760262,-81.757751 3.180508,0 0,1.30962 -1.870886,3e-6 z"
         sodipodi:nodetypes="ccccc" />
      <path
         id="rect51073"
         style="opacity:1;stroke-width:0.2;stroke-linecap:round;stroke-linejoin:round"
         transform="rotate(90)"
         d="m 67.46875,-43.65625 5.820833,0 1.322917,-1.322917 1.322917,0.529167 -2.10156,2.116667 H 67.46875 Z"
         sodipodi:nodetypes="ccccccc" />
      <rect
         style="opacity:1;fill:#000000;fill-opacity:1;stroke:none;stroke-width:0.2;stroke-linecap:round;stroke-linejoin:round"
         id="rect51075"
         width="5.2916656"
         height="1.3229136"
         x="41.010418"
         y="74.612503" />
      <rect
         style="opacity:1;fill:#000000;fill-opacity:1;stroke:none;stroke-width:0.2;stroke-linecap:round;stroke-linejoin:round"
         id="rect51784"
         width="1.3229154"
         height="7.143743"
         x="44.979168"
         y="68.791664" />
      <path
         id="rect51843"
         style="opacity:1;stroke-width:0.2;stroke-linecap:round;stroke-linejoin:round"
         d="m 47.625,68.791664 1.322917,3e-6 -2.645834,2.645833 v -1.322917 z"
         sodipodi:nodetypes="ccccc" />
      <rect
         style="opacity:1;fill:#000000;fill-opacity:1;stroke:none;stroke-width:0.2;stroke-linecap:round;stroke-linejoin:round"
         id="rect51985"
         width="1.3229166"
         height="7.1437526"
         x="47.625"
         y="68.791664" />
      <path
         style="fill:#000000;stroke:none;stroke-width:0.264583px;stroke-linecap:butt;stroke-linejoin:miter;stroke-opacity:1;fill-opacity:1"
         d="m 50.270833,72.231249 -1.322917,1.5875 v 2.116667 l 1.322917,-1.322917 1.322916,1.322917 v -2.116667 z"
         id="path52020" />
      <path
         style="fill:#000000;fill-opacity:1;stroke:none;stroke-width:0.264583px;stroke-linecap:butt;stroke-linejoin:miter;stroke-opacity:1"
         d="m 50.270834,72.495834 -1.322917,-1.5875 v -2.116667 l 1.322917,1.322917 1.322916,-1.322917 v 2.116667 z"
         id="path52168" />
      <rect
         style="opacity:1;fill:#000000;fill-opacity:1;stroke:none;stroke-width:0.2;stroke-linecap:round;stroke-linejoin:round"
         id="rect52444"
         width="1.3229166"
         height="0.79374999"
         x="47.625"
         y="67.46875" />
    </g>
  </g>
</svg>
