<?xml version="1.0" encoding="UTF-8" standalone="no"?>
<svg
    xmlns="http://www.w3.org/2000/svg"
    width="60mm"
    height="20mm"
    viewBox="0 0 60 20"
    version="1.1">
  <defs>
    <filter id="shadow">
      <feDropShadow dx="0" dy="0" stdDeviation="1" flood-color="#808" />
    </filter>
  </defs>
  <g id="layer1"
     transform="translate(-75,-93)"
     style="fill:#f8a; filter:url(#shadow);" >
    <path d="m 83.022108,104.22708 q 0.1524,-0.3302 0.2794,-0.3302 0.1778,0 0.3556,0.381 0.127,0.2032 0.127,0.3302 0,0.1778 -0.2286,0.7112 -0.3048,0.7112 -0.4318,0.8382 -0.0254,0.0254 -0.0508,0.0254 -0.2286,0 -0.889,-0.6096 -0.635,-0.6096 -0.635,-0.8636 0,-0.4064 0.2286,-0.4064 0.1016,0 0.4064,0.127 0.4826,0.1778 0.5334,0.1778 0.1524,0 0.3048,-0.381 z m -1.651,-8.458201 q 0.5588,-0.3556 1.2192,-0.3556 0.635,0 1.1938,0.3048 0.5588,0.3048 0.8128,0.8382 0.2794,0.6096 0.2794,1.2446 0,1.1176 -0.5842,1.1176 -0.4064,0 -0.508,-1.0668 -0.0762,-0.6604 -0.3048,-0.9398 -0.3048,-0.3302 -0.8128,-0.3302 -0.7366,0 -1.0414,0.6096 -0.1778,0.3302 -0.1778,0.7112 0,0.4572 0.4064,1.0922 0.4064,0.6096 1.1684,1.016001 0.762,0.381 2.3368,0.8382 2.3876,0.6858 2.9718,1.524 0.508,0.7366 0.508,2.032 0,1.1176 -0.381,2.286 -0.254,0.8636 -1.0668,1.6256 -0.7366,0.7112 -1.6764,1.1684 -0.8382,0.4064 -1.397,0.4064 -0.0508,0 -0.2032,0 -0.127,-0.0254 -0.2286,-0.0254 -1.2954,-0.0508 -2.54,-0.6604 -1.2192,-0.6096 -2.0574,-1.6002 -0.635,-0.7874 -0.635,-1.7272 0,-0.5842 0.2794,-0.762 0.127,-0.0762 0.2286,-0.0762 0.4064,0 0.6096,0.9398 0.1778,0.762 0.889,1.4224 0.7366,0.6604 1.8288,1.0922 0.6604,0.254 1.3462,0.254 1.5748,0 2.921,-1.397 0.4318,-0.4572 0.5588,-0.7112 0.1524,-0.2794 0.2794,-0.9906 0.1016,-0.5842 0.1016,-1.2192 0,-1.0922 -0.3048,-1.4732 -0.3302,-0.4318 -2.4384,-1.0414 -1.3716,-0.381 -2.0574,-0.7112 -0.6858,-0.3302 -1.2192,-0.8382 -1.3716,-1.371601 -1.3716,-2.362201 0,-1.4986 1.0668,-2.2352 z" />
    <path d="m 93.198992,104.53188 q 0.1016,-0.1016 0.2286,-0.1016 0.228599,0 0.507999,0.254 0.3302,0.254 0.5588,0.127 0.1778,-0.1016 0.3048,-0.1016 0.3302,0 0.3302,0.4318 0,0.508 -0.4826,0.9906 -0.381,0.381 -0.5588,0.381 -0.1016,0 -0.1778,-0.0508 -0.2794,-0.1524 -0.533399,-0.6858 -0.254,-0.5588 -0.254,-0.9652 0,-0.2032 0.0762,-0.2794 z m -1.8288,-8.458201 q 0.1524,-0.2032 0.3556,-0.2032 0.3302,0 0.5842,0.6096 0.1016,0.3556 0.1016,1.2446 v 0.3556 l -0.0254,1.1938 0.5334,0.0508 h 0.254 q 0.330199,0 0.838199,-0.0508 0.5588,-0.0762 0.5588,-0.3302 0,-0.2032 -0.381,-0.4318 -0.4064,-0.2286 -0.4064,-0.5588 0,-0.4318 0.5334,-0.4318 0.1524,0 0.2286,0.0254 0.4826,0.1016 0.8128,0.5588 0.3302,0.4318 0.3302,0.9398 0,0.3048 -0.1016,0.508 -0.381,0.863601 -2.260599,0.863601 h -0.9906 l -0.0762,0.4318 q -0.1016,0.4572 -0.1016,2.794 0,1.9304 0.127,2.5654 0.1524,0.635 0.6604,1.0414 0.3048,0.2286 0.736599,0.2286 0.508,0 0.9906,-0.3556 0.3302,-0.254 0.5842,-0.254 0.2286,0 0.381,0.1524 0.127,0.127 0.127,0.3302 0,0.4318 -0.635,0.8382 -0.635,0.4064 -1.397,0.4064 -0.863599,0 -1.396999,-0.3556 -0.508,-0.3556 -0.9144,-1.1938 -0.2286,-0.4826 -0.2794,-1.016 -0.0508,-0.5334 -0.0508,-2.6924 v -3.0226 l -0.4318,-0.0762 q -0.1016,-0.0254 -0.889,-0.1016 -0.4826,-0.0254 -0.508,-0.355601 0,-0.0254 -0.0254,-0.0762 0,-0.0508 0,-0.0762 0,-0.5334 1.1176,-0.5334 h 0.8382 l 0.0762,-0.6604 q 0.0508,-0.3556 0.0508,-0.6858 0,-0.3302 -0.0508,-0.7366 -0.0254,-0.1524 -0.0254,-0.4318 0,-0.381 0.127,-0.508 z" />
    <path d="m 101.12798,103.21108 q 0.127,-0.2286 0.254,-0.2286 0.1524,0 0.4572,0.3048 0.2794,0.3302 0.635,0.1778 0.3302,-0.1016 0.5334,0.1016 0.2032,0.2032 -0.0508,0.6858 -0.2032,0.381 -0.5842,0.6858 -0.3556,0.3048 -0.6096,0.3048 -0.3048,0 -0.5334,-0.4826 -0.2286,-0.4826 -0.2286,-0.9906 0,-0.3048 0.127,-0.5588 z m -3.276585,-5.537201 q 0.126997,-0.1016 0.279397,-0.1016 0.355597,0 0.609597,0.5842 0.279397,0.5842 0.355597,1.5494 l 0.1016,0.863601 0.736597,-0.685801 q 1.193797,-1.1938 2.336797,-1.1938 0.508,0 0.9906,0.254 0.6858,0.3556 1.0668,0.9652 0.381,0.609601 0.381,1.270001 0,0.7366 -0.4318,1.2446 -0.381,0.4318 -0.9652,0.4318 -0.5588,0 -0.9906,-0.4064 -0.3556,-0.3302 -0.3556,-0.4826 0,-0.127 0.0762,-0.2794 0.1016,-0.3302 0.381,-0.5842 0.3048,-0.254 0.5334,-0.254 0.0508,0 0.1524,0.0508 0.2286,0.127 0.3302,0.4826 0.1016,0.3048 0.1016,-0.0254 0,-0.0762 0,-0.2032 0,-0.0762 0,-0.127 0,-0.381 -0.4826,-0.8636 -0.4572,-0.355601 -0.7112,-0.355601 -0.1524,0 -0.254,0.0254 -0.635,0.1016 -1.2954,0.736601 -0.6604,0.635 -1.117597,1.524 -0.355597,0.7112 -0.355597,3.4798 0,1.4478 0.152397,2.0574 0.1524,0.6096 0.1524,0.8128 0,0.0254 0,0.0762 l -0.0254,0.0508 q -0.0508,0.2032 -0.457197,0.4572 -0.380997,0.2286 -0.660397,0.2286 -0.279397,0 -0.406397,-0.1524 -0.1016,-0.1778 -0.1016,-0.635 0,-0.1524 0.0508,-0.9144 0.1016,-1.1684 0.1016,-3.4798 v -0.9144 q -0.0254,-3.0734 -0.279397,-4.191001 l -0.1778,-0.9906 q 0,-0.127 0.1778,-0.3048 z" />
    <path d="m 107.63882,99.223279 c 0.3048,-0.3048 0.508,-0.4572 0.6096,-0.4572 0.1524,0 0.2794,0.06773 0.381,0.2032 0.1016,0.135467 0.1524,0.287867 0.1524,0.4572 0,0.3556 -0.0593,0.982131 -0.1778,1.879601 -0.1016,0.89747 -0.1524,1.6256 -0.1524,2.1844 v 0.8128 c 0.0508,1.6256 0.16933,2.4384 0.3556,2.4384 0.0677,0 0.1524,-0.0508 0.254,-0.1524 0.13547,-0.13547 0.254,-0.2032 0.3556,-0.2032 0.11853,0 0.24553,0.0677 0.381,0.2032 0.1524,0.11853 0.2286,0.2794 0.2286,0.4826 0,0.2032 -0.0847,0.46567 -0.254,0.7874 -0.254,0.508 -0.55033,0.762 -0.889,0.762 -0.38947,0 -0.7366,-0.32173 -1.0414,-0.9652 -0.38947,-0.84667 -0.5842,-2.01507 -0.5842,-3.5052 0,-0.54187 0.008,-0.9652 0.0254,-1.27 l 0.0762,-2.0828 -0.4826,-0.0508 c -0.47413,-0.0508 -0.7112,-0.2286 -0.7112,-0.5334 0,-0.270934 0.21167,-0.431801 0.635,-0.482601 0.27093,-0.03387 0.55033,-0.2032 0.8382,-0.508 z m 0.88662,-4.271963 c 0.14933,-0.03043 0.45111,0.0471 0.58658,0.182563 0.1524,0.1524 0.2286,0.347133 0.2286,0.5842 0,0.440267 -0.24553,0.999067 -0.7366,1.6764 -0.23707,0.3048 -0.4064,0.4572 -0.508,0.4572 -0.0847,0 -0.37253,-0.2286 -0.8636,-0.6858 -0.44027,-0.440267 -0.6604,-0.8128 -0.6604,-1.1176 0,-0.254 0.0847,-0.4572 0.254,-0.6096 0.40759,-0.345144 0.66903,-0.278334 1.08799,0.01046 0.15494,-0.320778 0.27339,-0.428934 0.61143,-0.497825 z" />
    <path d="m 120.82984,102.72848 q 0.1778,-0.2032 0.6858,0.1016 0.2794,0.2032 0.5588,0.0508 0.0762,-0.0508 0.2286,-0.0508 0.4064,0 0.4064,0.4826 0,0.127 -0.0254,0.2032 -0.1016,0.3556 -0.5334,0.7874 -0.4064,0.4318 -0.6604,0.4318 h -0.0508 q -0.254,-0.0254 -0.4826,-0.5842 -0.2286,-0.5588 -0.2286,-1.016 0,-0.3048 0.1016,-0.4064 z m -7.62,-5.486401 q 0.381,-0.2032 0.8128,-0.2032 0.9652,0 2.032,1.5494 0.2286,0.381 0.6096,0.9398 0.381,0.533401 0.6858,1.016001 0.3048,0.4572 0.5588,0.9906 l 0.4826,0.9652 0.3556,-0.635 q 0.8128,-1.5748 1.905,-2.286001 0.889,-0.6096 1.4986,-0.6096 0.2286,0 0.5334,0.0762 1.651,0.4318 2.032,2.997201 0.0762,0.4064 0.0762,0.7112 0,0.6858 -0.4318,0.6858 -0.3302,0 -0.4826,-0.2286 -0.1524,-0.254 -0.2794,-1.016 -0.3302,-2.0574 -1.3716,-2.0574 -0.3556,0 -0.8636,0.3048 -0.5842,0.381 -0.9144,0.8128 -0.3048,0.4064 -0.8636,1.4732 l -0.635,1.1938 0.6604,1.0668 q 1.2446,2.0574 2.54,2.6162 0.4826,0.2032 0.6604,0.2032 0.1016,0 0.4572,-0.1016 0.254,-0.0762 0.4572,-0.0762 0.4572,0 0.4572,0.4572 v 0.127 q -0.0762,0.6858 -1.2446,0.6858 -0.6604,0 -1.3462,-0.3048 -0.635,-0.2794 -1.397,-1.016 -0.7366,-0.7366 -1.3208,-1.6256 l -0.5842,-0.889 -0.5334,0.8128 q -0.4826,0.762 -1.1938,1.4986 -0.6858,0.7366 -1.1938,1.016 -0.7112,0.3556 -1.5748,0.3556 -1.1684,0 -1.8542,-0.5334 -0.4826,-0.381 -0.4826,-0.635 0,-0.127 0.0762,-0.2794 0.127,-0.254 0.4064,-0.254 0.254,0 0.7366,0.2794 0.4064,0.2794 1.1684,0.2794 0.6096,0 0.9906,-0.2032 0.635,-0.3302 1.6764,-1.778 1.0414,-1.4478 1.0414,-1.9812 0,-0.381 -0.6858,-1.651 -0.6858,-1.27 -1.1938,-1.9558 -0.635,-0.838201 -0.9144,-1.295401 -0.1778,-0.3302 -0.508,-0.508 -0.2794,-0.1778 -0.6858,0.1016 -0.8636,0.635 -0.8636,2.108201 0,0.9398 0.2794,1.2954 0.2794,0.3302 1.0922,0.4064 0.2032,0.0254 0.2286,-0.0254 0.0508,-0.0508 0.0508,-0.1778 0,-0.2032 0.2032,-0.4826 0.2286,-0.2794 0.4064,-0.2794 0.254,0 0.5842,0.4064 0.3556,0.381 0.3556,0.6858 0,0.4826 -0.508,0.762 -0.4826,0.254 -1.1684,0.254 -1.2446,0 -1.9558,-0.7112 -0.7366,-0.7366 -0.7366,-2.0574 0,-1.041401 0.4572,-1.955801 0.4572,-0.9398 1.2192,-1.3208 z" />
  </g>
</svg>
